<?xml version="1.0" encoding="utf-8"?>
<!-- Generator: Adobe Illustrator 24.0.2, SVG Export Plug-In . SVG Version: 6.00 Build 0)  -->
<svg version="1.1" id="Capa_2" xmlns="http://www.w3.org/2000/svg" xmlns:xlink="http://www.w3.org/1999/xlink" x="0px" y="0px"
	 viewBox="0 0 1920 1080" style="enable-background:new 0 0 1920 1080;" xml:space="preserve">
<style type="text/css">
	.st0{fill:none;stroke:#32BAFF;stroke-width:16;stroke-miterlimit:10;}
	.st1{fill:#32BAFF;}
	.st2{fill:none;stroke:#32BAFF;stroke-width:2;stroke-miterlimit:10;}
</style>
<circle class="st0" cx="959.5" cy="508.9" r="416"/>
<circle class="st1" cx="595" cy="424.4" r="9.5"/>
<circle class="st1" cx="687.5" cy="421.9" r="10"/>
<circle class="st1" cx="649.5" cy="483.9" r="9"/>
<circle class="st1" cx="656.5" cy="345.9" r="10"/>
<circle class="st1" cx="606.5" cy="480.9" r="8"/>
<circle class="st1" cx="648.5" cy="519.9" r="8"/>
<circle class="st1" cx="690.5" cy="497.9" r="7"/>
<circle class="st1" cx="686.5" cy="535.9" r="7"/>
<circle class="st1" cx="712.5" cy="558.9" r="7"/>
<circle class="st1" cx="748.5" cy="549.9" r="9"/>
<circle class="st1" cx="811.5" cy="569.9" r="9"/>
<circle class="st1" cx="790.5" cy="638.9" r="9"/>
<circle class="st1" cx="718.5" cy="620.9" r="9"/>
<circle class="st1" cx="856.5" cy="615.9" r="9"/>
<circle class="st1" cx="861.5" cy="673.9" r="9"/>
<circle class="st1" cx="907.5" cy="645.9" r="8"/>
<circle class="st1" cx="804.5" cy="719.9" r="10"/>
<circle class="st1" cx="739.5" cy="679.9" r="9"/>
<circle class="st1" cx="763.5" cy="697.9" r="6"/>
<circle class="st1" cx="770.5" cy="766.9" r="8"/>
<circle class="st1" cx="808.5" cy="796.9" r="9"/>
<circle class="st1" cx="780.5" cy="813.9" r="9"/>
<circle class="st1" cx="833.9" cy="778.5" r="5.6"/>
<circle class="st1" cx="848.5" cy="758.9" r="7"/>
<circle class="st1" cx="884.5" cy="707.9" r="7"/>
<circle class="st1" cx="861.5" cy="724.9" r="6"/>
<circle class="st1" cx="807.5" cy="834.9" r="6"/>
<circle class="st1" cx="804.5" cy="860.9" r="9"/>
<circle class="st1" cx="875.5" cy="887.9" r="9"/>
<circle class="st1" cx="977.5" cy="878.9" r="9"/>
<circle class="st1" cx="1124.5" cy="840.9" r="9"/>
<circle class="st1" cx="1053.5" cy="896.9" r="9"/>
<circle class="st1" cx="734.5" cy="568.9" r="7"/>
<circle class="st1" cx="702.5" cy="544.9" r="4"/>
<circle class="st1" cx="688.5" cy="519.9" r="4"/>
<circle class="st1" cx="702.5" cy="525.9" r="5"/>
<circle class="st1" cx="729.5" cy="556.9" r="4"/>
<circle class="st1" cx="722.5" cy="462.9" r="8"/>
<circle class="st1" cx="745.5" cy="421.9" r="8"/>
<circle class="st1" cx="809.5" cy="363.9" r="9"/>
<circle class="st1" cx="822.5" cy="317.9" r="9"/>
<circle class="st1" cx="850.5" cy="337.9" r="9"/>
<circle class="st1" cx="841.5" cy="300.9" r="7"/>
<circle class="st1" cx="805.5" cy="283.9" r="8"/>
<circle class="st1" cx="776.5" cy="355.9" r="9"/>
<circle class="st1" cx="773.5" cy="326.9" r="6"/>
<circle class="st1" cx="724.5" cy="323.9" r="9"/>
<circle class="st1" cx="677.5" cy="247.9" r="11"/>
<circle class="st1" cx="757.5" cy="248.9" r="7"/>
<circle class="st1" cx="764.5" cy="263.9" r="6"/>
<circle class="st1" cx="740.5" cy="292.9" r="6"/>
<circle class="st1" cx="900.5" cy="272.9" r="9"/>
<circle class="st1" cx="893.5" cy="209.9" r="10"/>
<circle class="st1" cx="963.5" cy="229.9" r="10"/>
<circle class="st1" cx="994.5" cy="169.9" r="11"/>
<circle class="st1" cx="944.5" cy="173.9" r="7"/>
<circle class="st1" cx="785.5" cy="179.9" r="11"/>
<circle class="st1" cx="862.2" cy="169.9" r="9"/>
<circle class="st1" cx="860.2" cy="134.9" r="9"/>
<circle class="st1" cx="936.2" cy="147.9" r="9"/>
<circle class="st1" cx="821.4" cy="255.8" r="7.2"/>
<circle class="st1" cx="858.4" cy="240.8" r="7.2"/>
<circle class="st1" cx="844.4" cy="219.8" r="7.2"/>
<circle class="st1" cx="765.4" cy="210.8" r="8.8"/>
<circle class="st1" cx="799.4" cy="239.8" r="7.2"/>
<circle class="st1" cx="793.4" cy="222.8" r="4.8"/>
<circle class="st1" cx="818.4" cy="197.8" r="5.3"/>
<circle class="st1" cx="838.4" cy="270.8" r="5.3"/>
<circle class="st1" cx="891.1" cy="245.6" r="5.3"/>
<circle class="st1" cx="1089.5" cy="154.9" r="11"/>
<circle class="st1" cx="1186.5" cy="196.9" r="9"/>
<circle class="st1" cx="1094.5" cy="230.9" r="7"/>
<circle class="st1" cx="1061.5" cy="262.9" r="7"/>
<circle class="st1" cx="1065.5" cy="302.9" r="7"/>
<circle class="st1" cx="1077" cy="280.4" r="5.5"/>
<circle class="st1" cx="1112.5" cy="268.9" r="9"/>
<circle class="st1" cx="1151.5" cy="248.9" r="10"/>
<circle class="st1" cx="1211.5" cy="283.9" r="10"/>
<circle class="st1" cx="1167.5" cy="228.9" r="9"/>
<circle class="st1" cx="1085.5" cy="323.9" r="10"/>
<circle class="st1" cx="1148.5" cy="355.9" r="10"/>
<circle class="st1" cx="1028.5" cy="324.9" r="7"/>
<circle class="st1" cx="1028.5" cy="342.9" r="7"/>
<circle class="st1" cx="1018.5" cy="293.9" r="8"/>
<circle class="st1" cx="1002.5" cy="320.9" r="8"/>
<circle class="st1" cx="1057.7" cy="285.6" r="4.4"/>
<circle class="st1" cx="1129.5" cy="234.9" r="4"/>
<circle class="st1" cx="1081.5" cy="364.9" r="8"/>
<circle class="st1" cx="1036.5" cy="382.9" r="6"/>
<circle class="st1" cx="1020.5" cy="366.9" r="6"/>
<circle class="st1" cx="999.5" cy="377.9" r="6"/>
<circle class="st1" cx="997.5" cy="404.9" r="6"/>
<circle class="st1" cx="1026.5" cy="398.9" r="6"/>
<circle class="st1" cx="1049.3" cy="371.9" r="3"/>
<circle class="st1" cx="1087.5" cy="403.9" r="6"/>
<circle class="st1" cx="1144.5" cy="396.9" r="8"/>
<circle class="st1" cx="1097.5" cy="388.9" r="5"/>
<circle class="st1" cx="1114.5" cy="380.9" r="7"/>
<circle class="st1" cx="1123.5" cy="404.9" r="7"/>
<circle class="st1" cx="1151.5" cy="412.9" r="4"/>
<circle class="st1" cx="1177.5" cy="407.9" r="9"/>
<circle class="st1" cx="1225.5" cy="377.9" r="10"/>
<circle class="st1" cx="1224.5" cy="449.9" r="8"/>
<circle class="st1" cx="1109.5" cy="445.9" r="8"/>
<circle class="st1" cx="1170.5" cy="451.9" r="9"/>
<circle class="st1" cx="1180.5" cy="499.9" r="6"/>
<circle class="st1" cx="1201.5" cy="486.9" r="6"/>
<circle class="st1" cx="1074.8" cy="512.7" r="10.7"/>
<circle class="st1" cx="997.8" cy="510.7" r="8.2"/>
<circle class="st1" cx="1005.8" cy="584.7" r="8.2"/>
<circle class="st1" cx="959.8" cy="545.7" r="8.2"/>
<circle class="st1" cx="1061.8" cy="416.7" r="8.2"/>
<circle class="st1" cx="997.8" cy="429.7" r="8.2"/>
<circle class="st1" cx="959.8" cy="480.7" r="8.2"/>
<circle class="st1" cx="1196" cy="553.3" r="9.5"/>
<circle class="st1" cx="1195" cy="645.3" r="8.2"/>
<circle class="st1" cx="1237" cy="569.3" r="8.2"/>
<circle class="st1" cx="1080" cy="599.3" r="9.5"/>
<circle class="st1" cx="1159" cy="621.3" r="9.5"/>
<circle class="st1" cx="1222.3" cy="532.1" r="7.2"/>
<circle class="st1" cx="1271.2" cy="497.9" r="6"/>
<circle class="st1" cx="1338.2" cy="548.9" r="7"/>
<circle class="st1" cx="1287.2" cy="470.9" r="7.3"/>
<circle class="st1" cx="1323.7" cy="434.9" r="8.8"/>
<circle class="st1" cx="1328.7" cy="500.9" r="7.8"/>
<circle class="st1" cx="1329.7" cy="527.9" r="5.8"/>
<circle class="st1" cx="1093.4" cy="752.3" r="7.8"/>
<circle class="st1" cx="1081.4" cy="689.3" r="7.8"/>
<circle class="st1" cx="1164.4" cy="722.3" r="9.4"/>
<circle class="st1" cx="1099.4" cy="786.3" r="5.1"/>
<circle class="st1" cx="1136.4" cy="773.3" r="6.6"/>
<circle class="st1" cx="1183.1" cy="690.8" r="5.1"/>
<circle class="st1" cx="1206.1" cy="733.8" r="8.4"/>
<circle class="st1" cx="1230.1" cy="678.8" r="6.1"/>
<circle class="st1" cx="1204.1" cy="701.8" r="5.1"/>
<circle class="st1" cx="1224.1" cy="706.8" r="3.1"/>
<line class="st2" x1="652" y1="349.4" x2="599" y2="419.4"/>
<line class="st2" x1="595.5" y1="431.9" x2="604.5" y2="475.9"/>
<line class="st2" x1="600.5" y1="429.9" x2="646.5" y2="479.9"/>
<line class="st2" x1="679.5" y1="421.9" x2="601.5" y2="423.9"/>
<line class="st2" x1="651.5" y1="480.9" x2="684.5" y2="423.9"/>
<line class="st2" x1="611.5" y1="480.9" x2="641.5" y2="483.9"/>
<line class="st2" x1="610.5" y1="484.9" x2="644.5" y2="517.9"/>
<polyline class="st2" points="649.5,490.9 649.5,519.9 690.5,494.9 688.5,518.9 "/>
<line class="st2" x1="685.5" y1="535.9" x2="649.5" y2="519.9"/>
<polyline class="st2" points="749.5,546.9 811.5,568.9 791.5,637.9 749.5,552.9 "/>
<polyline class="st2" points="748.5,549.9 734.5,568.9 729.5,556.9 711.5,556.9 702.5,544.9 702.5,525.9 688.5,519.9 "/>
<line class="st2" x1="718.5" y1="620.9" x2="734.5" y2="568.9"/>
<polyline class="st2" points="721.5,620.9 790.5,638.9 860.5,673.9 856.5,615.9 792.5,637.9 "/>
<polyline class="st2" points="811.5,569.9 856.5,615.9 908.5,644.9 884.5,709.9 860.5,724.9 "/>
<polyline class="st2" points="860.5,725.9 849.5,757.9 849.5,758.9 833.5,778.9 807.5,796.9 807.5,834.9 805.5,862.9 779.5,814.9 
	770.5,766.9 804.5,719.9 807.5,795.9 771.5,767.9 "/>
<polyline class="st2" points="769.5,761.9 763.5,697.9 804.5,718.9 860.5,674.9 907.5,645.9 "/>
<line class="st2" x1="864.5" y1="676.9" x2="884.5" y2="707.9"/>
<line class="st2" x1="857.5" y1="724.9" x2="808.5" y2="719.9"/>
<line class="st2" x1="845.5" y1="757.9" x2="807.5" y2="721.9"/>
<line class="st2" x1="804.5" y1="798.9" x2="783.5" y2="812.9"/>
<line class="st2" x1="803.5" y1="713.9" x2="790.5" y2="640.9"/>
<polyline class="st2" points="717.5,621.9 739.5,679.9 789.5,637.9 "/>
<line class="st2" x1="762.5" y1="696.9" x2="741.5" y2="682.9"/>
<polyline class="st2" points="687.5,520.9 686.5,534.9 702.5,525.9 "/>
<line class="st2" x1="702.5" y1="544.9" x2="686.5" y2="535.9"/>
<polyline class="st2" points="723.5,326.9 687.7,418.7 776.5,355.9 773.5,326.9 740.5,292.9 763.5,263.9 757.5,248.9 765.5,209.9 
	800.5,239.9 821.5,253.9 859.5,239.9 838.5,269.9 822.5,257.9 "/>
<path class="st2" d="M615.5,340.9"/>
<line class="st2" x1="594.5" y1="422.9" x2="595.5" y2="309.9"/>
<line class="st2" x1="599.5" y1="306.9" x2="655.5" y2="345.9"/>
<polyline class="st2" points="726.5,324.9 777.5,355.9 821.5,318.9 808.5,362.9 761.5,405.9 744.5,421.9 721.5,462.9 689.5,422.9 
	656.5,345.9 677.5,247.9 723.5,322.9 660.5,343.9 "/>
<line class="st2" x1="692.5" y1="420.9" x2="745.6" y2="420.9"/>
<polyline class="st2" points="808.5,362.9 849.5,337.9 841.5,300.9 805.5,281.9 773.6,327.9 "/>
<line class="st2" x1="822.5" y1="316.9" x2="805.5" y2="281.9"/>
<line class="st2" x1="843.5" y1="217.9" x2="860.5" y2="238.9"/>
<polygon class="st2" points="792.5,221.9 843.5,218.9 817.5,197.9 "/>
<polyline class="st2" points="765.5,209.9 785.5,179.9 730.5,158.9 "/>
<line class="st2" x1="763.5" y1="263.9" x2="799.3" y2="238.9"/>
<polyline class="st2" points="758.5,248.9 677.5,246.9 766.2,208.8 "/>
<line class="st2" x1="727.5" y1="160.9" x2="677.5" y2="247.9"/>
<line class="st2" x1="602.5" y1="296.9" x2="679.4" y2="244.7"/>
<polyline class="st2" points="900.5,272.9 891.5,244.9 894.5,210.9 963.5,229.9 899.5,272.9 "/>
<polyline class="st2" points="964.5,228.9 993.5,171.9 944.5,172.9 962.5,225.9 "/>
<line class="st2" x1="893.5" y1="207.9" x2="942.5" y2="173.9"/>
<polyline class="st2" points="893.5,204.9 862.5,170.9 860.5,134.9 936.5,147.9 993.5,168.9 960.5,84.9 936.5,145.9 "/>
<polyline class="st2" points="958.5,83.9 859.5,133.9 787.5,177.9 860.5,167.9 "/>
<polyline class="st2" points="817.5,197.9 862.3,168.1 932.2,147.2 "/>
<polyline class="st2" points="995.5,165.9 1089.5,155.9 966.5,83.9 "/>
<polyline class="st2" points="1190.5,152.9 1187.5,197.9 1260.5,214.9 "/>
<polyline class="st2" points="1184.5,195.9 1089.5,155.9 1167.5,228.9 1186.5,197.9 "/>
<polyline class="st2" points="1273.5,228.9 1302.5,345.9 1352.5,372.9 1324.5,432.9 1372.5,494.9 1327.5,500.9 1323.5,434.9 
	1287.5,469.9 1303.5,343.9 1211.5,283.9 1224.5,375.9 1286.5,467.9 "/>
<line class="st2" x1="1229.5" y1="375.9" x2="1298.5" y2="346.9"/>
<polyline class="st2" points="1146.5,355.9 1224.5,375.9 1224.5,448.9 1177.5,407.9 1144.5,396.9 1115.5,381.9 1145.5,356.9 
	1211.5,283.9 "/>
<line class="st2" x1="1178.5" y1="405.9" x2="1224.5" y2="375.9"/>
<polyline class="st2" points="1148,354.1 1151.5,245.9 1112.5,267.9 1094.5,230.9 1129.5,233.9 1149.5,243.9 "/>
<polyline class="st2" points="1154.5,246.9 1167.5,228.9 1269.5,225.9 1209.7,286 1157.5,246.9 "/>
<polyline class="st2" points="1087.5,405.9 1097.5,388.9 1081.5,365.9 1084.5,322.9 1145.5,353.9 1112.5,267.9 1085.5,319.9 "/>
<polyline class="st2" points="1108.5,267.9 1076.5,279.9 1061.5,262.9 1057.5,285.9 1074.5,280.9 "/>
<polyline class="st2" points="1030.5,323.9 1019.5,290.9 1001.5,319.9 1028.5,326.9 1029.5,341.9 1064.5,301.9 1076.5,282.9 "/>
<polyline class="st2" points="1029.5,343.9 1020.5,365.9 1036.5,382.9 1026.5,399.9 997.5,404.9 999.5,377.9 1018.5,365.9 "/>
<polyline class="st2" points="1038.5,381.9 1049.5,372.9 1079.5,364.9 1031.5,342.9 "/>
<polyline class="st2" points="1150.5,411.9 1143.5,399.9 1122.5,404.9 1113.5,378.9 1085.5,363.9 "/>
<polyline class="st2" points="1222.5,533.9 1224.5,454.9 1227.5,451.9 1271.5,497.9 1225.5,531.9 1201.5,485.9 1174.5,450.9 
	1177.5,411.9 "/>
<polyline class="st2" points="1171.5,450.9 1111.5,443.9 1075.5,510.9 "/>
<polyline class="st2" points="1108.5,442.9 1062.5,415.9 1073.5,507.9 "/>
<polyline class="st2" points="1058.5,415.9 997.5,428.9 1074.5,512.9 "/>
<polyline class="st2" points="994.5,430.9 958.5,479.9 997.5,511.9 997.5,432.9 "/>
<polyline class="st2" points="957.5,482.9 958.5,543.9 1006.5,584.9 998.5,510.9 1075.5,511.9 1171.5,451.9 1180.5,500.9 
	1196.5,551.9 1236.5,568.9 1194.5,644.9 1158.5,620.9 1194.5,551.9 1077.5,512.9 1156.5,618.9 1079.5,598.9 1074.5,514.9 
	1008.5,584.9 1081.5,597.9 1081.5,689.9 1157.5,622.9 1163.5,721.9 1184.5,689.9 1194.5,646.9 "/>
<polyline class="st2" points="1204.5,699.9 1230.5,675.9 1223.5,707.9 1207.5,733.9 1204.5,702.9 "/>
<polyline class="st2" points="1165.5,721.9 1135.5,773.9 1099.5,787.9 1092.5,753.9 1161.5,720.9 1081.5,687.4 1093.5,751.9 "/>
<line class="st2" x1="1162.5" y1="619.9" x2="1232.5" y2="571.9"/>
<polyline class="st2" points="1370.6,495.2 1338.5,549.9 1330.5,528.9 1327.5,500.9 1287.7,468.1 1268.5,470.9 1227.5,448.9 "/>
<polyline class="st2" points="1214.5,839.9 1124.5,839.9 1133.5,889.9 "/>
<line class="st2" x1="1053.5" y1="897.9" x2="1123.5" y2="840.9"/>
<polyline class="st2" points="1104.5,899.9 1053.5,896.9 977.5,876.9 959.5,924.9 875.5,889.9 807.5,834.9 "/>
<line class="st2" x1="878.5" y1="886.9" x2="977.5" y2="876.9"/>
<line class="st2" x1="873" y1="887.9" x2="803.5" y2="893.9"/>
<line class="st2" x1="968.5" y1="924.9" x2="1052" y2="896.6"/>
<line class="st2" x1="825" y1="317.4" x2="849.5" y2="337.9"/>
<line class="st2" x1="824.5" y1="315.9" x2="841.5" y2="300.9"/>
<line class="st2" x1="1061" y1="263.4" x2="1094.5" y2="230.9"/>
<line class="st2" x1="959.5" y1="546.9" x2="997.5" y2="510.9"/>
</svg>
